<svg width="28" height="28" viewBox="0 0 28 28" fill="none" xmlns="http://www.w3.org/2000/svg">
  <path
    d="M21.7778 19.4445V21.7778H6.22224V19.4445H21.7778ZM21.7778 7.77778C20.6111 7.77778 19.7074 9.08834 20.5349 10.262C20.951 10.8523 20.8507 11.2078 20.5699 11.6223C19.9749 12.4989 19.1139 13.2222 17.8889 13.2222C15.9281 13.2222 14.8914 11.6021 14.6759 10.2293C14.6012 9.75178 14.5592 9.39401 15.015 8.95067C15.3277 8.64734 15.5556 8.24756 15.5556 7.77778C15.5556 6.91912 14.8587 6.22223 14 6.22223C13.1414 6.22223 12.4445 6.91912 12.4445 7.77778C12.4445 8.24756 12.6724 8.64734 12.985 8.95067C13.4408 9.39401 13.398 9.75178 13.3241 10.2293C13.1087 11.6021 12.0719 13.2222 10.1111 13.2222C8.88613 13.2222 8.02513 12.4989 7.43013 11.6216C7.14858 11.2078 7.04824 10.8523 7.46513 10.262C8.29269 9.08834 7.38891 7.77778 6.22224 7.77778C5.36358 7.77778 4.66669 8.47467 4.66669 9.33334C4.66669 9.95323 5.02758 10.4961 5.55646 10.7396C6.19813 11.0351 6.22224 11.7639 6.22224 12.4281V17.8889H21.7778V12.4281C21.7778 11.7639 21.8019 11.0343 22.4436 10.7396C22.9725 10.4961 23.3334 9.95323 23.3334 9.33334C23.3334 8.47467 22.6365 7.77778 21.7778 7.77778Z"
    fill="#F4A403" />
</svg>